<svg width="1024" height="1024" viewBox="0 0 1024 1024" fill="none" xmlns="http://www.w3.org/2000/svg">
  <defs>
    <linearGradient id="outer" x1="164" y1="112" x2="868" y2="912" gradientUnits="userSpaceOnUse">
      <stop offset="0" stop-color="#EEF7FF"/>
      <stop offset="0.28" stop-color="#73D7FF"/>
      <stop offset="0.62" stop-color="#2563EB"/>
      <stop offset="1" stop-color="#111827"/>
    </linearGradient>
    <linearGradient id="glass" x1="275" y1="214" x2="733" y2="806" gradientUnits="userSpaceOnUse">
      <stop offset="0" stop-color="#FFFFFF"/>
      <stop offset="0.24" stop-color="#DDF7FF"/>
      <stop offset="0.56" stop-color="#57C8F5"/>
      <stop offset="1" stop-color="#155E9D"/>
    </linearGradient>
    <linearGradient id="edge" x1="322" y1="244" x2="716" y2="804" gradientUnits="userSpaceOnUse">
      <stop stop-color="#FFFFFF" stop-opacity="0.94"/>
      <stop offset="0.55" stop-color="#BAE6FD" stop-opacity="0.45"/>
      <stop offset="1" stop-color="#0F172A" stop-opacity="0.5"/>
    </linearGradient>
    <radialGradient id="shine" cx="0" cy="0" r="1" gradientUnits="userSpaceOnUse" gradientTransform="translate(328 238) rotate(49) scale(545 494)">
      <stop stop-color="#FFFFFF" stop-opacity="0.95"/>
      <stop offset="0.38" stop-color="#FFFFFF" stop-opacity="0.32"/>
      <stop offset="1" stop-color="#FFFFFF" stop-opacity="0"/>
    </radialGradient>
    <filter id="shadow" x="94" y="88" width="836" height="866" filterUnits="userSpaceOnUse" color-interpolation-filters="sRGB">
      <feFlood flood-opacity="0" result="BackgroundImageFix"/>
      <feColorMatrix in="SourceAlpha" type="matrix" values="0 0 0 0 0 0 0 0 0 0 0 0 0 0 0 0 0 0 127 0" result="hardAlpha"/>
      <feOffset dy="30"/>
      <feGaussianBlur stdDeviation="32"/>
      <feColorMatrix type="matrix" values="0 0 0 0 0.0156863 0 0 0 0 0.0901961 0 0 0 0 0.164706 0 0 0 0.32 0"/>
      <feBlend mode="normal" in2="BackgroundImageFix" result="effect1_dropShadow"/>
      <feBlend mode="normal" in="SourceGraphic" in2="effect1_dropShadow" result="shape"/>
    </filter>
    <clipPath id="clip">
      <path d="M512 112C291.086 112 112 291.086 112 512C112 732.914 291.086 912 512 912C732.914 912 912 732.914 912 512C912 291.086 732.914 112 512 112Z"/>
    </clipPath>
  </defs>

  <g filter="url(#shadow)">
    <path d="M512 112C291.086 112 112 291.086 112 512C112 732.914 291.086 912 512 912C732.914 912 912 732.914 912 512C912 291.086 732.914 112 512 112Z" fill="url(#outer)"/>
    <path d="M512 143C308.207 143 143 308.207 143 512C143 715.793 308.207 881 512 881C715.793 881 881 715.793 881 512C881 308.207 715.793 143 512 143Z" stroke="white" stroke-opacity="0.72" stroke-width="30"/>
    <g clip-path="url(#clip)">
      <path d="M172 747L748 172H918V349L354 912H172V747Z" fill="white" fill-opacity="0.14"/>
      <path d="M100 538L522 116H675L241 551L100 538Z" fill="white" fill-opacity="0.22"/>
      <path d="M485 884L912 457V610L638 884H485Z" fill="#0F172A" fill-opacity="0.22"/>
    </g>
  </g>

  <path d="M305 754L484 270C494.38 241.942 533.973 241.29 545.273 268.988L743 754H623L586 649H429L393 754H305Z" fill="url(#glass)" stroke="url(#edge)" stroke-width="26" stroke-linejoin="round"/>
  <path d="M464 552H550L506 428L464 552Z" fill="#082F49" fill-opacity="0.85"/>
  <path d="M414 649L464 552H550L598 649H414Z" fill="#DFF7FF" fill-opacity="0.62"/>
  <path d="M321 736L498 278C504.106 262.203 526.546 262.037 532.886 277.742L720 741" stroke="white" stroke-opacity="0.78" stroke-width="24" stroke-linecap="round" stroke-linejoin="round"/>
  <path d="M384 340C441 278 528 250 612 271" stroke="url(#shine)" stroke-width="88" stroke-linecap="round"/>
  <path d="M294 780H756" stroke="#E0F2FE" stroke-opacity="0.88" stroke-width="24" stroke-linecap="round"/>
</svg>
